<mxfile host="app.diagrams.net" agent="Mozilla/5.0 (Windows NT 10.0; Win64; x64) AppleWebKit/537.36 (KHTML, like Gecko) Chrome/140.0.0.0 Safari/537.36 Edg/140.0.0.0" version="26.1.1">
  <diagram name="Side-1" id="sHAtcBL5NMvWPnuHVoda">
    <mxGraphModel dx="2066" dy="1141" grid="1" gridSize="10" guides="1" tooltips="1" connect="1" arrows="1" fold="1" page="1" pageScale="1" pageWidth="827" pageHeight="1169" math="0" shadow="0">
      <root>
        <mxCell id="0" />
        <mxCell id="1" parent="0" />
        <mxCell id="jkTbnj56_Fqp3oOJEUvp-1" value="«interface»&lt;br&gt;&lt;b&gt;DataStrategy&lt;/b&gt;" style="html=1;whiteSpace=wrap;" vertex="1" parent="1">
          <mxGeometry x="210" y="360" width="110" height="50" as="geometry" />
        </mxCell>
        <mxCell id="jkTbnj56_Fqp3oOJEUvp-2" value="PathAlgorithm" style="html=1;whiteSpace=wrap;" vertex="1" parent="1">
          <mxGeometry x="359" y="270" width="110" height="50" as="geometry" />
        </mxCell>
        <mxCell id="jkTbnj56_Fqp3oOJEUvp-3" value="«interface»&lt;br&gt;&lt;b&gt;TaskStrategy&lt;/b&gt;" style="html=1;whiteSpace=wrap;" vertex="1" parent="1">
          <mxGeometry x="520" y="360" width="110" height="50" as="geometry" />
        </mxCell>
        <mxCell id="jkTbnj56_Fqp3oOJEUvp-4" value="Punkter" style="html=1;whiteSpace=wrap;" vertex="1" parent="1">
          <mxGeometry x="130" y="440" width="110" height="50" as="geometry" />
        </mxCell>
        <mxCell id="jkTbnj56_Fqp3oOJEUvp-5" value="Polygoner" style="html=1;whiteSpace=wrap;" vertex="1" parent="1">
          <mxGeometry x="130" y="520" width="110" height="50" as="geometry" />
        </mxCell>
        <mxCell id="jkTbnj56_Fqp3oOJEUvp-6" value="StopShapefile" style="html=1;whiteSpace=wrap;" vertex="1" parent="1">
          <mxGeometry x="290" y="440" width="110" height="50" as="geometry" />
        </mxCell>
        <mxCell id="jkTbnj56_Fqp3oOJEUvp-7" value="MobilePlan" style="html=1;whiteSpace=wrap;" vertex="1" parent="1">
          <mxGeometry x="290" y="520" width="110" height="50" as="geometry" />
        </mxCell>
        <mxCell id="jkTbnj56_Fqp3oOJEUvp-8" value="Flextur" style="html=1;whiteSpace=wrap;" vertex="1" parent="1">
          <mxGeometry x="600" y="520" width="110" height="50" as="geometry" />
        </mxCell>
        <mxCell id="jkTbnj56_Fqp3oOJEUvp-9" value="ShortestePath" style="html=1;whiteSpace=wrap;" vertex="1" parent="1">
          <mxGeometry x="440" y="440" width="110" height="50" as="geometry" />
        </mxCell>
        <mxCell id="jkTbnj56_Fqp3oOJEUvp-10" value="AllNearbyStops" style="html=1;whiteSpace=wrap;" vertex="1" parent="1">
          <mxGeometry x="600" y="440" width="110" height="50" as="geometry" />
        </mxCell>
        <mxCell id="jkTbnj56_Fqp3oOJEUvp-12" value="FlexturData" style="html=1;whiteSpace=wrap;" vertex="1" parent="1">
          <mxGeometry x="130" y="600" width="110" height="50" as="geometry" />
        </mxCell>
        <mxCell id="jkTbnj56_Fqp3oOJEUvp-13" value="" style="endArrow=diamondThin;endFill=0;endSize=24;html=1;rounded=0;entryX=0;entryY=0.5;entryDx=0;entryDy=0;exitX=0.5;exitY=0;exitDx=0;exitDy=0;" edge="1" parent="1" source="jkTbnj56_Fqp3oOJEUvp-1" target="jkTbnj56_Fqp3oOJEUvp-2">
          <mxGeometry width="160" relative="1" as="geometry">
            <mxPoint x="330" y="580" as="sourcePoint" />
            <mxPoint x="490" y="580" as="targetPoint" />
            <Array as="points">
              <mxPoint x="265" y="295" />
            </Array>
          </mxGeometry>
        </mxCell>
        <mxCell id="jkTbnj56_Fqp3oOJEUvp-14" value="" style="endArrow=diamondThin;endFill=0;endSize=24;html=1;rounded=0;entryX=1;entryY=0.5;entryDx=0;entryDy=0;exitX=0.5;exitY=0;exitDx=0;exitDy=0;" edge="1" parent="1" source="jkTbnj56_Fqp3oOJEUvp-3" target="jkTbnj56_Fqp3oOJEUvp-2">
          <mxGeometry width="160" relative="1" as="geometry">
            <mxPoint x="580" y="290" as="sourcePoint" />
            <mxPoint x="740" y="290" as="targetPoint" />
            <Array as="points">
              <mxPoint x="575" y="295" />
            </Array>
          </mxGeometry>
        </mxCell>
        <mxCell id="jkTbnj56_Fqp3oOJEUvp-16" value="" style="endArrow=block;dashed=1;endFill=0;endSize=12;html=1;rounded=0;entryX=0.5;entryY=1;entryDx=0;entryDy=0;exitX=1;exitY=0.5;exitDx=0;exitDy=0;" edge="1" parent="1" source="jkTbnj56_Fqp3oOJEUvp-4" target="jkTbnj56_Fqp3oOJEUvp-1">
          <mxGeometry width="160" relative="1" as="geometry">
            <mxPoint x="260" y="500" as="sourcePoint" />
            <mxPoint x="270" y="760" as="targetPoint" />
            <Array as="points">
              <mxPoint x="265" y="465" />
            </Array>
          </mxGeometry>
        </mxCell>
        <mxCell id="jkTbnj56_Fqp3oOJEUvp-17" value="" style="endArrow=block;dashed=1;endFill=0;endSize=12;html=1;rounded=0;entryX=0.5;entryY=1;entryDx=0;entryDy=0;exitX=1;exitY=0.5;exitDx=0;exitDy=0;" edge="1" parent="1" source="jkTbnj56_Fqp3oOJEUvp-5" target="jkTbnj56_Fqp3oOJEUvp-1">
          <mxGeometry width="160" relative="1" as="geometry">
            <mxPoint x="250" y="475" as="sourcePoint" />
            <mxPoint x="275" y="420" as="targetPoint" />
            <Array as="points">
              <mxPoint x="265" y="545" />
            </Array>
          </mxGeometry>
        </mxCell>
        <mxCell id="jkTbnj56_Fqp3oOJEUvp-18" value="" style="endArrow=block;dashed=1;endFill=0;endSize=12;html=1;rounded=0;entryX=0.5;entryY=1;entryDx=0;entryDy=0;exitX=1;exitY=0.5;exitDx=0;exitDy=0;" edge="1" parent="1" source="jkTbnj56_Fqp3oOJEUvp-12" target="jkTbnj56_Fqp3oOJEUvp-1">
          <mxGeometry width="160" relative="1" as="geometry">
            <mxPoint x="260" y="485" as="sourcePoint" />
            <mxPoint x="285" y="430" as="targetPoint" />
            <Array as="points">
              <mxPoint x="265" y="625" />
            </Array>
          </mxGeometry>
        </mxCell>
        <mxCell id="jkTbnj56_Fqp3oOJEUvp-19" value="" style="endArrow=block;dashed=1;endFill=0;endSize=12;html=1;rounded=0;entryX=0.5;entryY=1;entryDx=0;entryDy=0;exitX=0;exitY=0.5;exitDx=0;exitDy=0;" edge="1" parent="1" source="jkTbnj56_Fqp3oOJEUvp-7" target="jkTbnj56_Fqp3oOJEUvp-1">
          <mxGeometry width="160" relative="1" as="geometry">
            <mxPoint x="270" y="495" as="sourcePoint" />
            <mxPoint x="295" y="440" as="targetPoint" />
            <Array as="points">
              <mxPoint x="265" y="545" />
            </Array>
          </mxGeometry>
        </mxCell>
        <mxCell id="jkTbnj56_Fqp3oOJEUvp-20" value="" style="endArrow=block;dashed=1;endFill=0;endSize=12;html=1;rounded=0;exitX=0;exitY=0.5;exitDx=0;exitDy=0;entryX=0.5;entryY=1;entryDx=0;entryDy=0;" edge="1" parent="1" source="jkTbnj56_Fqp3oOJEUvp-6" target="jkTbnj56_Fqp3oOJEUvp-1">
          <mxGeometry width="160" relative="1" as="geometry">
            <mxPoint x="280" y="505" as="sourcePoint" />
            <mxPoint x="240" y="430" as="targetPoint" />
            <Array as="points">
              <mxPoint x="265" y="465" />
            </Array>
          </mxGeometry>
        </mxCell>
        <mxCell id="jkTbnj56_Fqp3oOJEUvp-21" value="" style="endArrow=block;dashed=1;endFill=0;endSize=12;html=1;rounded=0;entryX=0.5;entryY=1;entryDx=0;entryDy=0;exitX=1;exitY=0.5;exitDx=0;exitDy=0;" edge="1" parent="1" source="jkTbnj56_Fqp3oOJEUvp-9" target="jkTbnj56_Fqp3oOJEUvp-3">
          <mxGeometry width="160" relative="1" as="geometry">
            <mxPoint x="290" y="515" as="sourcePoint" />
            <mxPoint x="315" y="460" as="targetPoint" />
            <Array as="points">
              <mxPoint x="575" y="465" />
            </Array>
          </mxGeometry>
        </mxCell>
        <mxCell id="jkTbnj56_Fqp3oOJEUvp-22" value="" style="endArrow=block;dashed=1;endFill=0;endSize=12;html=1;rounded=0;entryX=0.5;entryY=1;entryDx=0;entryDy=0;exitX=0;exitY=0.5;exitDx=0;exitDy=0;" edge="1" parent="1" source="jkTbnj56_Fqp3oOJEUvp-10" target="jkTbnj56_Fqp3oOJEUvp-3">
          <mxGeometry width="160" relative="1" as="geometry">
            <mxPoint x="300" y="525" as="sourcePoint" />
            <mxPoint x="325" y="470" as="targetPoint" />
            <Array as="points">
              <mxPoint x="575" y="465" />
            </Array>
          </mxGeometry>
        </mxCell>
        <mxCell id="jkTbnj56_Fqp3oOJEUvp-23" value="" style="endArrow=block;dashed=1;endFill=0;endSize=12;html=1;rounded=0;exitX=0;exitY=0.5;exitDx=0;exitDy=0;entryX=0.5;entryY=1;entryDx=0;entryDy=0;" edge="1" parent="1" source="jkTbnj56_Fqp3oOJEUvp-8" target="jkTbnj56_Fqp3oOJEUvp-3">
          <mxGeometry width="160" relative="1" as="geometry">
            <mxPoint x="310" y="535" as="sourcePoint" />
            <mxPoint x="580" y="420" as="targetPoint" />
            <Array as="points">
              <mxPoint x="575" y="545" />
            </Array>
          </mxGeometry>
        </mxCell>
      </root>
    </mxGraphModel>
  </diagram>
</mxfile>
